# xmcd
#
# Track frame offsets:
#	150
#	14657
#	30657
#	42612
#	54607
#	66200
#	79457
#	92532
#	106480
#	120047
#	133120
#	147032
#	158945
#	173405
#	187737
#	199785
#
# Disc length: 2814 seconds
#
# Revision: 1
# Processed by: cddbd v1.5.1PL0 Copyright (c) Steve Scherf et al.
# Submitted via: EasyCDDAExtractor 6.5.0.3
#
DISCID=d40afc10
DTITLE=Ray Anthony Orchestra - I Remember Glenn Miller
DYEAR=2002
DGENRE=Big Band
TTITLE0=Tuxedo Junction
TTITLE1=Moonlight Serenade
TTITLE2=Chatanooga Choo Choo
TTITLE3=At Last
TTITLE4=Little Brown Jug
TTITLE5=Serenade In Blue
TTITLE6=Sunrise Serenade
TTITLE7=In The Mood
TTITLE8=I Know Why
TTITLE9=Volga Boatman
TTITLE10=Elmer's Tune
TTITLE11=Ida! Sweet As Apple Cider
TTITLE12=Stardust
TTITLE13=Harlem Nocturne
TTITLE14=Tenderly
TTITLE15=Man With A Horn
EXTD=
EXTT0=
EXTT1=
EXTT2=
EXTT3=
EXTT4=
EXTT5=
EXTT6=
EXTT7=
EXTT8=
EXTT9=
EXTT10=
EXTT11=
EXTT12=
EXTT13=
EXTT14=
EXTT15=
PLAYORDER=
